<?xml version="1.0" encoding="UTF-8"?> <svg xmlns="http://www.w3.org/2000/svg" id="Livello_1" data-name="Livello 1" viewBox="0 0 752.17 202.98"><defs><style>.cls-1{fill:#f5e0cc;}</style></defs><polygon class="cls-1" points="258.45 173.09 266.82 173.09 266.82 170.44 258.45 170.44 258.45 165.93 267.89 165.93 267.89 163.23 255.23 163.23 255.23 180.57 268.23 180.57 268.23 177.87 258.45 177.87 258.45 173.09"></polygon><polygon class="cls-1" points="303.85 174.97 294.29 163.23 291.64 163.23 291.64 180.57 294.83 180.57 294.83 168.83 304.39 180.57 307.04 180.57 307.04 163.23 303.85 163.23 303.85 174.97"></polygon><path class="cls-1" d="M339.61,163c-5.38,0-9.34,3.79-9.34,8.91s4,8.92,9.34,8.92,9.33-3.77,9.33-8.92S345,163,339.61,163Zm0,15a6.09,6.09,0,1,1,6.09-6.09A5.91,5.91,0,0,1,339.61,178Z"></path><polygon class="cls-1" points="369.7 165.96 375.44 165.96 375.44 180.57 378.66 180.57 378.66 165.96 384.41 165.96 384.41 163.23 369.7 163.23 369.7 165.96"></polygon><polygon class="cls-1" points="409.87 173.09 418.24 173.09 418.24 170.44 409.87 170.44 409.87 165.93 419.3 165.93 419.3 163.23 406.64 163.23 406.64 180.57 419.65 180.57 419.65 177.87 409.87 177.87 409.87 173.09"></polygon><path class="cls-1" d="M451.17,165.81a6.08,6.08,0,0,1,4.63,2l2.08-2A8.77,8.77,0,0,0,451,163c-5.32,0-9.28,3.74-9.28,8.91s4,8.92,9.26,8.92a8.79,8.79,0,0,0,6.88-2.9l-2.08-2a6,6,0,0,1-4.63,2.05,6.09,6.09,0,1,1,0-12.18Z"></path><path class="cls-1" d="M485.77,163.23,478,180.57h3.32l1.7-4h8.67l1.74,4h3.36l-7.82-17.34ZM484.08,174l3.25-7.58L490.6,174Z"></path><path class="cls-1" d="M15.11,118.77a4.27,4.27,0,0,0,2.49.72,5.92,5.92,0,0,0,5.45-3.43L34.42,91.38l49.2,27.44a6.19,6.19,0,0,0,2.81.71,6,6,0,0,0,4-1.59,5.27,5.27,0,0,0,1.4-6.9L56.87,37.76a5.89,5.89,0,0,0-5.42-3.35,5.54,5.54,0,0,0-5.28,3.43L26.41,80.64,12.33,111a5.35,5.35,0,0,0-.21,4.58A6.29,6.29,0,0,0,15.11,118.77Zm36.54-64.5L73.24,99.39,39.43,80.63Z"></path><path class="cls-1" d="M106.27,118.2a5.59,5.59,0,0,0,4.13,1.64h.3a6.09,6.09,0,0,0,4-1.92,6,6,0,0,0,1.59-4.22l-.63-19.4a50.62,50.62,0,0,0,5.31-.24A32.78,32.78,0,0,0,128,92.63l14.73,24.49a5.92,5.92,0,0,0,2.29,2,6.06,6.06,0,0,0,2.71.67,5.32,5.32,0,0,0,3.22-.93,5.39,5.39,0,0,0,2.59-3.55,6,6,0,0,0-.57-4.4l-14.45-23.8a2.27,2.27,0,0,0,.36-.32c6.85-5.77,10.32-14.24,10.32-25.18,0-10.44-3.38-19.11-10.08-25.81a35.61,35.61,0,0,0-10-6.89,53.59,53.59,0,0,0-10-3.45,49.5,49.5,0,0,0-8-1.23l-3.43-.18-.22,0a7.07,7.07,0,0,0-4.08,1.79l-.2.25a7.55,7.55,0,0,0-1.43,4.1l2.75,83.95A6.22,6.22,0,0,0,106.27,118.2Zm15.11-79.64a23.79,23.79,0,0,1,9.47,5.92c4.27,4.28,6.44,10.06,6.44,17.18,0,7.3-2,12.71-6,16.11a12.83,12.83,0,0,1-4.09,2.54,31.72,31.72,0,0,1-4.76,1.4,29.55,29.55,0,0,1-4.57.57c-.93,0-1.78.06-2.56.07l-1.45-45.78A62,62,0,0,1,121.38,38.56Z"></path><path class="cls-1" d="M232.76,40.26a40,40,0,0,0-12.84-10.08,36.1,36.1,0,0,0-31.72,0,41,41,0,0,0-12.92,10.07,49,49,0,0,0-8.68,14.88,52.63,52.63,0,0,0,0,36.09,48.91,48.91,0,0,0,8.68,14.87,40.93,40.93,0,0,0,12.92,10.07,36,36,0,0,0,31.72,0,39.87,39.87,0,0,0,12.84-10.07,50.2,50.2,0,0,0,8.59-14.87,52.63,52.63,0,0,0,0-36.09A50.08,50.08,0,0,0,232.76,40.26Zm-2.23,46.5a37.85,37.85,0,0,1-6.29,11.09,29.41,29.41,0,0,1-9.16,7.45,24.12,24.12,0,0,1-22,0,29.3,29.3,0,0,1-9.17-7.45,37.85,37.85,0,0,1-6.29-11.09,39.25,39.25,0,0,1-2.31-13.59A39.76,39.76,0,0,1,177.6,59.5a37.63,37.63,0,0,1,6.28-11.17,29.28,29.28,0,0,1,9.17-7.45,24.06,24.06,0,0,1,22,0,29.24,29.24,0,0,1,9.16,7.45,37.59,37.59,0,0,1,6.29,11.16,40.18,40.18,0,0,1,2.31,13.68A39.33,39.33,0,0,1,230.53,86.76Z"></path><path class="cls-1" d="M319.8,28.33a6.07,6.07,0,0,0-1.58-3.5,6.29,6.29,0,0,0-3.34-1.9,5,5,0,0,0-4,.73,7.26,7.26,0,0,0-2.53,2.91L292.56,66.3,264.4,25.44a5.61,5.61,0,0,0-6.6-2.32,5.47,5.47,0,0,0-4.16,5.71V113.9a5.94,5.94,0,1,0,11.87,0V47.81L289.09,82a5.31,5.31,0,0,0,5.56,2.57,5.78,5.78,0,0,0,4.78-3.66l10.33-26,2.14,31.41a6.13,6.13,0,0,0,1.92,4,5.36,5.36,0,0,0,4.31,1.42,6.25,6.25,0,0,0,4.12-2,5.46,5.46,0,0,0,1.51-4.37Z"></path><path class="cls-1" d="M338.8,119.84a5.87,5.87,0,0,0,5.93-5.94v-76a6,6,0,0,0-10.15-4.21,5.72,5.72,0,0,0-1.72,4.21v76a5.87,5.87,0,0,0,5.94,5.94Z"></path><path class="cls-1" d="M441.38,89.56,403.65,52.2a3.68,3.68,0,0,0-4.76-.82,3.93,3.93,0,0,0-2.45,4.27l6.91,60.44a4.18,4.18,0,0,0,2.68,3.45,5.05,5.05,0,0,0,1.57.3,4.22,4.22,0,0,0,2.48-.83l30.79-23a3.61,3.61,0,0,0,1.68-3A4.62,4.62,0,0,0,441.38,89.56ZM410.9,107.85l-4.63-41.2,25.62,25.51Z"></path><path class="cls-1" d="M453.34,119.84a4.22,4.22,0,0,0,4.26-4.26V61.08a4.26,4.26,0,1,0-8.52,0v54.5a4.22,4.22,0,0,0,4.26,4.26Z"></path><path class="cls-1" d="M522.28,144.4c6.44-4.37,2.18-7.7.18-11,6.4-4.27,6.58-5.23,2.38-11.17,2.11-1.75,3.37-2.81,3.88-3.86a6.47,6.47,0,0,0,1.44-2L560,50.45a5.47,5.47,0,0,0,.32-4.51,5.9,5.9,0,0,0-3-3.29,5.55,5.55,0,0,0-4.64-.23,6.31,6.31,0,0,0-3.37,3.17L527.38,94l-10.7-61.49a5.94,5.94,0,0,0-2.28-3.83,5.4,5.4,0,0,0-4.4-1,6.14,6.14,0,0,0-3.91,2.35A5.56,5.56,0,0,0,505,34.58L519,115a5.38,5.38,0,0,0,3.65,4.47l-3.54,1.77,6.7,6.68-8.17,4.51C519.71,136.43,525.79,138.06,522.28,144.4Z"></path><path class="cls-1" d="M576.25,119.84a5.87,5.87,0,0,0,5.94-5.94v-76a5.94,5.94,0,1,0-11.87,0v76a5.87,5.87,0,0,0,5.93,5.94Z"></path><path class="cls-1" d="M597,118.46a5.87,5.87,0,0,0,5.94-5.93V52.33l36,64.42a5.2,5.2,0,0,0,5.11,3.09,4.49,4.49,0,0,0,1.69-.25,5.49,5.49,0,0,0,4.25-5.69V29.52a5.46,5.46,0,0,0-1.76-4.16,6.26,6.26,0,0,0-8.36,0,5.49,5.49,0,0,0-1.75,4.16V91.27L602.13,26.81a5.48,5.48,0,0,0-2.78-2.67,6.13,6.13,0,0,0-3.87-.34A5.57,5.57,0,0,0,592.34,26a5.87,5.87,0,0,0-1.23,3.53v83a5.87,5.87,0,0,0,5.93,5.93Z"></path><path class="cls-1" d="M671,106.09A40.86,40.86,0,0,0,684,116.16a36,36,0,0,0,31.71,0,40,40,0,0,0,12.85-10.07,50.33,50.33,0,0,0,8.59-14.87,52.79,52.79,0,0,0,0-36.09,50.08,50.08,0,0,0-8.59-14.87,40,40,0,0,0-12.85-10.08,36.08,36.08,0,0,0-31.71,0A41,41,0,0,0,671,40.25a49.08,49.08,0,0,0-8.68,14.88,52.79,52.79,0,0,0,0,36.09A49,49,0,0,0,671,106.09Zm2.32-46.6a37.5,37.5,0,0,1,6.29-11.16,29.24,29.24,0,0,1,9.16-7.45,24.06,24.06,0,0,1,22,0A29.13,29.13,0,0,1,720,48.33a37.47,37.47,0,0,1,6.29,11.16,39.94,39.94,0,0,1,2.32,13.68,39.14,39.14,0,0,1-2.32,13.59A37.85,37.85,0,0,1,720,97.85a29.29,29.29,0,0,1-9.16,7.45,24.15,24.15,0,0,1-22,0,29.3,29.3,0,0,1-9.17-7.45,37.82,37.82,0,0,1-6.28-11.09A39.06,39.06,0,0,1,671,73.17,39.86,39.86,0,0,1,673.35,59.49Z"></path><path class="cls-1" d="M678.1,88.69c2.12,5.26,5.3,9.88,10.53,13.1A22.15,22.15,0,0,0,701.91,105a23.48,23.48,0,0,0,4.38-.8A23.71,23.71,0,0,0,720,94.34a25.62,25.62,0,0,0,4.32-15,24.22,24.22,0,0,0-3-11c-1.49-2.8-5.33-6.63-7.81-7.68,1.05,1,2.17,2,3.18,3a18.4,18.4,0,0,1,5,9.89,18,18,0,0,1-2.55,12.75,21.3,21.3,0,0,1-11,8.94A27.86,27.86,0,0,1,693,96.67a16.64,16.64,0,0,1-10.3-6.06c-3.46-4.28-5-9.28-5.84-14.53A69.39,69.39,0,0,1,676,64.83c0-.69,0-1.37,0-2A54.32,54.32,0,0,0,675.27,76,41.21,41.21,0,0,0,678.1,88.69Z"></path><path class="cls-1" d="M696.64,63.55c8.65-.24,15,2.78,19.15,9.25a.13.13,0,0,0,.23-.07c-.35-8.21-11.63-13.12-19.44-9.39A.11.11,0,0,0,696.64,63.55Z"></path><path class="cls-1" d="M205.42,169.5a65.65,65.65,0,0,0-14.2-1.67,82.69,82.69,0,0,0-14.22.8,61.12,61.12,0,0,0-7,1.48c-2.3.63-4.52,1.36-6.74,2a59.72,59.72,0,0,1-13.53,2.39,92.52,92.52,0,0,1-13.83-.1,57.79,57.79,0,0,1-6.82-1c-2.25-.48-4.48-1.09-6.72-1.74s-4.52-1.28-6.84-1.78a61.89,61.89,0,0,0-7-1,95.09,95.09,0,0,0-14.12-.11,61.79,61.79,0,0,0-13.89,2.46c-2.26.65-4.48,1.38-6.72,2A58.56,58.56,0,0,1,67,174.61a80.81,80.81,0,0,1-13.91.78,63.21,63.21,0,0,1-13.84-1.62c-4.53-1.05-9-2.67-13.57-3.48a72.73,72.73,0,0,0-14-1.08,72.06,72.06,0,0,1,13.92,1.3c4.59.87,9,2.56,13.52,3.69a64.65,64.65,0,0,0,13.92,1.85,82.52,82.52,0,0,0,14-.56A62.39,62.39,0,0,0,74,174.13c2.28-.59,4.51-1.28,6.75-1.89A61.1,61.1,0,0,1,94.48,170a93.18,93.18,0,0,1,13.88.33,58,58,0,0,1,6.82,1.11c2.24.52,4.46,1.17,6.69,1.85s4.51,1.35,6.82,1.89a59.36,59.36,0,0,0,7,1.15,94.34,94.34,0,0,0,14.16.33,62.42,62.42,0,0,0,14-2.26c2.28-.62,4.51-1.31,6.74-1.88a59.1,59.1,0,0,1,6.72-1.32,80.85,80.85,0,0,1,13.75-.55,62.17,62.17,0,0,1,13.56,1.81c4.4,1.08,8.85,2.8,13.59,3.71a74.66,74.66,0,0,0,14.26,1.33V174A71,71,0,0,1,218.91,173C214.45,172.19,210.1,170.59,205.42,169.5Z"></path><path class="cls-1" d="M712.86,170.78a64.65,64.65,0,0,0-13.92-1.85,81.66,81.66,0,0,0-14.06.57,58.35,58.35,0,0,0-6.92,1.36c-2.28.58-4.52,1.27-6.76,1.88a60.45,60.45,0,0,1-13.68,2.2,93.15,93.15,0,0,1-13.88-.32,58,58,0,0,1-6.82-1.12c-2.25-.52-4.46-1.16-6.7-1.85s-4.5-1.35-6.81-1.89a60,60,0,0,0-7-1.14,93.14,93.14,0,0,0-14.17-.34,63.17,63.17,0,0,0-14,2.26c-2.28.62-4.51,1.31-6.73,1.88a59.7,59.7,0,0,1-6.73,1.32,79.79,79.79,0,0,1-13.75.55,62.6,62.6,0,0,1-13.55-1.8c-4.4-1.09-8.85-2.8-13.6-3.71a74.5,74.5,0,0,0-14.25-1.34V171A70.2,70.2,0,0,1,533.08,172c4.47.78,8.81,2.37,13.5,3.46a65.66,65.66,0,0,0,14.2,1.68,84.68,84.68,0,0,0,14.21-.8,61.32,61.32,0,0,0,7-1.49c2.29-.63,4.52-1.35,6.74-2a60.74,60.74,0,0,1,13.53-2.39,92.53,92.53,0,0,1,13.83.11,60.59,60.59,0,0,1,6.82,1c2.24.49,4.47,1.09,6.71,1.75s4.53,1.28,6.84,1.77a58,58,0,0,0,7,1,93.75,93.75,0,0,0,14.12.11,61.78,61.78,0,0,0,13.9-2.46c2.25-.65,4.47-1.37,6.71-2a60.41,60.41,0,0,1,6.8-1.44,81.77,81.77,0,0,1,13.91-.78,64.29,64.29,0,0,1,13.83,1.62c4.54,1,9,2.67,13.58,3.48a72.57,72.57,0,0,0,14,1.09,72.93,72.93,0,0,1-13.92-1.3C721.78,173.6,717.41,171.92,712.86,170.78Z"></path></svg> 